HIERARCHY
ROOT Hips
{
  OFFSET -7.24937 91.4088 106.588
  CHANNELS 6 Xposition Yposition Zposition Zrotation Xrotation Yrotation
  JOINT ToSpine
  {
    OFFSET -2.69724 7.43032 -0.144315
    CHANNELS 3 Zrotation Xrotation Yrotation
    JOINT Spine
    {
      OFFSET -0.0310711 10.7595 1.96963
      CHANNELS 3 Zrotation Xrotation Yrotation
      JOINT Spine1
      {
        OFFSET 19.9056 3.91189 0.764692
        CHANNELS 3 Zrotation Xrotation Yrotation
        JOINT Neck
        {
          OFFSET 25.9749 7.03908 -0.130764
          CHANNELS 3 Zrotation Xrotation Yrotation
          JOINT Head
          {
            OFFSET 9.52751 0.295786 -0.907742
            CHANNELS 3 Zrotation Xrotation Yrotation
            End Site
            {
              OFFSET 16.4037 0.713936 2.7358
            }
          }
        }
        JOINT LeftShoulder
        {
          OFFSET 17.7449 4.33886 11.7777
          CHANNELS 3 Zrotation Xrotation Yrotation
          JOINT LeftArm
          {
            OFFSET 0.911315 1.27913 9.80584
            CHANNELS 3 Zrotation Xrotation Yrotation
            JOINT LeftForeArm
            {
              OFFSET 28.6126 1.18197 -3.53199
              CHANNELS 3 Zrotation Xrotation Yrotation
              JOINT LeftHand
              {
                OFFSET 27.5088 0.0218783 0.327423
                CHANNELS 3 Zrotation Xrotation Yrotation
                End Site
                {
                  OFFSET 18.6038 -0.000155887 0.382096
                }
              }
            }
          }
        }
        JOINT RightShoulder
        {
          OFFSET 17.1009 2.89543 -12.2328
          CHANNELS 3 Zrotation Xrotation Yrotation
          JOINT RightArm
          {
            OFFSET 1.4228 0.178766 -10.211
            CHANNELS 3 Zrotation Xrotation Yrotation
            JOINT RightForeArm
            {
              OFFSET 28.733 1.87905 2.64907
              CHANNELS 3 Zrotation Xrotation Yrotation
              JOINT RightHand
              {
                OFFSET 27.4588 0.290562 -0.101845
                CHANNELS 3 Zrotation Xrotation Yrotation
                End Site
                {
                  OFFSET 17.8396 -0.255518 -0.000602873
                }
              }
            }
          }
        }
      }
    }
  }
  JOINT LeftUpLeg
  {
    OFFSET -5.61296 -2.22332 -10.2353
    CHANNELS 3 Zrotation Xrotation Yrotation
    JOINT LeftLeg
    {
      OFFSET 2.56703 -44.7417 -7.93097
      CHANNELS 3 Zrotation Xrotation Yrotation
      JOINT LeftFoot
      {
        OFFSET 3.16933 -46.5642 -3.96578
        CHANNELS 3 Zrotation Xrotation Yrotation
        JOINT LeftToeBase
        {
          OFFSET 0.346054 -6.02161 12.8035
          CHANNELS 3 Zrotation Xrotation Yrotation
          End Site
          {
            OFFSET 0.134235 -1.35082 5.13018
          }
        }
      }
    }
  }
  JOINT RightUpLeg
  {
    OFFSET -5.7928 -1.72406 10.6446
    CHANNELS 3 Zrotation Xrotation Yrotation
    JOINT RightLeg
    {
      OFFSET -2.57161 -44.7178 -7.85259
      CHANNELS 3 Zrotation Xrotation Yrotation
      JOINT RightFoot
      {
        OFFSET -3.10148 -46.5936 -4.03391
        CHANNELS 3 Zrotation Xrotation Yrotation
        JOINT RightToeBase
        {
          OFFSET -0.0828122 -6.13587 12.8035
          CHANNELS 3 Zrotation Xrotation Yrotation
          End Site
          {
            OFFSET -0.131328 -1.35082 5.13018
          }
        }
      }
    }
  }
}
MOTION
Frames:	13
Frame Time:	0.0333333
-79.0357 91.4619 28.531 61.4054 -26.0784 -9.75862 -70.1915 0 88.8779 152.499 67.6382 -51.0859 3.43192 28.6183 -0.396882 -170.087 26.3435 175.871 -150.624 64.3931 168.744 2.81773 0.57181 -28.2743 -97.2952 37.4535 -73.9599 -16.3224 53.7461 11.5852 20.1585 -0.693845 -2.16795 -0.431917 5.05588 24.9634 -67.3735 -41.3315 127.283 13.9223 -7.66317 57.0678 6.333 0.237464 4.39134 -15.4381 10.4049 94.3634 -167.974 65.8896 166.336 5.90971 6.50776 -0.690401 -8.48738 -36.1136 10.9195 -40.8763 2.84512 73.7153 9.56649 68.137 8.29657 -9.53093 -13.077 1.17704 10.0148 -21.3671 -12.4312 
-68.7324 92.4485 39.0141 56.2683 -30.3633 -15.0811 -70.1915 0 88.8779 153.956 70.4376 -55.3193 1.88322 30.8798 -2.01146 -167.919 26.7 171.873 -151.197 64.5239 169.258 2.42755 -0.718612 -26.1576 -99.3508 39.6109 -62.5034 -16.4513 52.8031 11.3603 20.9204 -0.296103 0.0935047 -0.182528 3.77599 22.5053 -68.3888 -43.216 127.71 12.8823 -4.9902 66.254 6.68152 0.225987 3.90102 -2.67363 5.58121 92.7869 -166.865 68.2403 163.909 5.83728 5.69728 -0.694813 -8.34194 -35.1647 10.5889 -52.8909 2.61147 72.8758 6.20658 56.6303 18.8673 -10.5322 -17.948 1.08195 4.99684 -6.32927 -8.75521 
-58.8771 94.8612 50.0789 52.5973 -33.2572 -20.2584 -70.1915 0 88.8779 152.696 73.3944 -58.5599 3.47334 32.2782 -4.28203 -167.095 26.338 168.669 -154.508 64.4759 172.659 1.9081 -3.35744 -23.9138 -103.885 42.4366 -54.7151 -17.7338 55.7169 13.2355 20.2955 -0.525508 -1.21722 -0.0407076 2.57342 21.7055 -72.4039 -44.0359 123.1 18.5223 -5.46077 73.1764 6.55542 0.3253 5.90512 3.13794 3.44717 95.4798 -156.08 79.3907 151.358 4.53279 4.81773 -0.50262 -7.60887 -31.0702 10.0582 -64.0257 2.70939 75.4031 3.60807 43.0885 18.7705 -6.02899 -15.826 1.20587 -14.6642 17.4134 16.6041 
-50.253 97.4754 60.598 51.1421 -34.1126 -19.4387 -70.1915 0 88.8779 149.475 73.974 -56.2322 5.83742 31.34 -4.68486 -167.631 25.8606 168.086 -154.301 63.8402 172.085 2.00764 -3.66466 -26.2824 -104.316 42.6122 -57.6239 -17.8051 56.7738 13.603 19.3287 -0.623158 -1.92797 0.042684 1.5135 22.5131 -75.884 -43.2716 116.602 18.1319 -4.91244 74.6782 7.76762 0.398949 6.01836 3.16961 2.14961 97.3656 -31.9771 83.079 23.3889 2.1556 4.40407 -0.139768 -5.9365 -21.5916 10.9427 -69.5094 6.66345 77.0258 3.189 39.6229 17.7086 -0.0124632 -3.58735 0.421916 -32.9351 38.8974 29.1957 
-42.9189 97.9924 69.457 53.272 -33.7542 -17.5526 -70.1915 0 88.8779 147.028 71.5132 -56.7044 8.45168 28.9572 -3.76693 -168.592 24.7781 168.1 -153.064 62.4425 171.182 2.14201 -3.66319 -28.5694 -101.794 44.1839 -64.8899 -16.3083 50.5667 11.7826 19.5043 -0.667185 -2.14659 -0.0101883 1.77226 23.8339 -79.2971 -42.4661 108.463 15.541 -5.38632 69.5023 8.70935 0.415471 5.5077 -2.78166 0.169027 103.875 -9.29217 69.8418 -3.17875 2.34625 7.46467 -0.0140321 -5.93593 -21.8506 9.81271 -67.0894 9.16974 80.4962 4.9366 57.9667 8.57209 -1.61871 0.990765 0.307698 -35.9417 37.7223 33.6998 
-34.7305 97.488 78.0744 55.691 -34.1326 -16.7984 -70.1915 0 88.8779 143.657 69.5603 -55.8852 12.5875 26.6278 -4.35057 -169.965 22.9286 168.795 -152.15 60.3748 171.554 2.24137 -3.06214 -28.5549 -96.5465 45.5137 -76.8459 -11.5588 43.6735 5.07497 19.7176 -0.801296 -2.86238 -0.077863 2.0932 25.1992 -81.0794 -41.661 102.906 14.583 -7.70491 58.518 8.96098 0.409515 5.24871 -12.3159 -2.04206 110.252 -5.99384 61.9834 -6.32146 4.84186 9.92269 -0.401396 -6.16475 -23.1459 9.8006 -59.8152 7.28826 81.8911 44.2703 85.0387 -39.2513 -3.5028 -0.778752 0.625368 -32.8387 44.7781 25.7009 
-25.4013 96.5625 86.6468 57.8568 -34.6601 -17.7365 -70.1915 0 88.8779 141.858 67.7515 -57.3559 14.0306 25.4301 -4.3981 -169.844 21.947 169.506 -151.33 59.3617 172.241 2.61999 -1.53576 -30.1523 -92.979 41.786 -89.4895 -4.63656 37.0697 -5.13317 21.0292 -0.839979 -2.77992 -0.0751847 1.69821 27.5034 -82.8578 -40.2971 94.1444 14.2035 -11.169 46.5163 7.8994 0.260472 3.72852 -23.4004 -7.22242 111.525 -4.54019 58.3308 -3.42936 6.98882 10.6487 -0.833328 -6.00609 -22.4406 8.77541 -49.5855 2.54019 85.5405 167.453 67.5703 -165.341 -4.76452 -1.02591 0.778037 -9.72311 38.2281 -2.78917 
-16.4837 93.746 95.9551 56.573 -34.5704 -19.6676 -70.1915 0 88.8779 139.144 68.0576 -56.553 12.5052 25.1492 -4.25745 -168.58 21.4955 169.154 -152.424 59.0867 173.099 2.94041 0.153529 -30.3247 -80.0219 36.9148 -109.214 2.34301 19.7341 -15.4419 23.1165 -0.867147 -2.50031 -0.0636453 1.43437 28.9934 -85.0713 -40.8202 81.1189 12.2876 -12.8404 36.796 8.19824 0.197606 2.61775 -30.6056 -11.793 105.003 -4.6047 58.86 -1.83474 9.59396 12.6472 -1.40479 -11.5074 -43.8651 3.35653 -31.2017 0.888723 90.6112 171.666 48.0927 -173.484 -5.29885 1.71932 0.769664 8.27177 13.8309 -26.835 
-7.24937 91.4088 106.588 56.8721 -25.8034 -20.6867 -70.1915 0 88.8779 127.313 67.7041 -49.0475 8.98023 21.9532 -1.7275 -166.418 21.9947 167.446 -154.49 59.9466 174.909 2.64116 -0.208196 -27.7237 -82.3907 35.7953 -119.724 9.2557 11.8125 -31.0282 21.3591 -0.708262 -2.02315 0.0409533 0.786376 28.7613 -92.4842 -43.2739 61.4393 12.258 -14.2555 33.7747 6.91729 0.141687 2.20862 -37.6441 -17.7621 99.1376 -5.05698 59.0517 -3.36399 11.0402 10.3484 -1.68168 -14.221 -49.0331 -0.878759 -10.5495 -5.52836 94.6854 171.947 40.5686 -171.806 -7.45396 -0.0727204 1.07558 9.94301 -2.74617 -26.2082 
4.90264 91.2796 119.327 57.1987 -22.8517 -17.595 -70.1915 0 88.8779 121.698 67.3768 -42.4286 7.07301 20.5344 -0.599547 -163.917 21.5038 166.61 -155.447 59.6597 175.521 2.37647 -0.494276 -25.1917 -90.1069 38.5545 -126.159 16.4314 12.6359 -49.275 23.5116 -1.57245 -5.76086 0.10497 0.411619 28.0747 -94.5346 -47.2072 47.5343 11.0366 -12.9155 32.5869 5.77146 0.141576 2.779 -53.6944 -13.6489 92.7916 -4.48422 51.5467 -11.2672 9.03911 3.05019 -1.2198 -10.8593 -42.8692 5.24532 0.903112 -3.90278 94.5783 170.668 49.0951 -164.68 -7.84288 -3.72181 1.13435 10.1291 -10.7192 -23.0918 
17.6422 92.7837 131.118 57.1161 -22.8166 -11.0236 -70.1915 0 88.8779 119.657 65.1918 -35.4789 4.89114 18.1393 1.98692 -159.682 19.6988 166.355 -154.331 57.7796 173.851 2.32009 -0.0145771 -23.8474 -92.2778 38.467 -129.193 21.0691 8.32976 -67.2953 20.3885 -0.992071 -3.75268 -0.0771909 1.80982 26.8351 -93.1054 -52.8191 40.274 8.31838 -9.03455 31.1997 5.23263 0.132286 2.91568 -67.6897 -5.45286 87.4714 -0.105064 42.1718 -15.6784 4.56909 -1.19589 -0.702061 -6.31213 -24.2116 7.01518 5.03285 -1.61859 88.5538 165.653 69.0209 -157.369 -9.76576 -2.32699 1.3254 10.5618 -18.8787 -18.5289 
29.8155 94.7677 142.191 56.2116 -23.9983 -9.98904 -70.1915 0 88.8779 111.077 64.9173 -28.1702 6.17527 15.934 5.01356 -156.848 17.2098 166.846 -155.091 55.3275 172.851 2.17829 1.10476 -21.0379 -90.5659 37.1053 -129.051 20.9648 3.86292 -79.2695 20.5641 -1.14777 -4.54801 -0.349093 3.9021 26.4129 -91.5835 -57.5258 36.8449 4.88782 -3.27281 32.2141 4.25512 0.132002 3.78922 -76.7088 0.458868 89.1031 -0.389033 37.773 -17.6998 0.90802 6.31599 0.17898 -4.87793 -12.3044 14.2849 4.28652 -0.0228468 87.0535 33.2616 83.5344 -25.28 -7.60952 -7.38821 1.13274 7.55604 -7.4002 -16.1766 
41.5935 95.3255 151.312 58.4026 -24.4728 -8.41144 -70.1915 0 88.8779 110.025 63.4412 -25.7696 10.3128 14.7879 3.88147 -157.091 16.4361 167.519 -154.66 54.2839 171.233 2.21337 1.68762 -20.8203 -84.2516 37.3158 -129.004 21.5831 2.51242 -83.3996 19.5884 -1.07552 -4.45107 -0.388611 3.82975 27.6755 -90.9405 -59.8478 37.4254 1.19871 2.31175 34.1722 3.72893 0.114486 3.84684 -81.3616 -2.11615 79.5031 -3.91061 52.544 -7.84311 1.95413 9.1653 0.15045 -5.84169 -19.781 14.4344 -3.47503 -3.05248 82.2933 4.36756 58.3471 4.57826 -4.81534 -2.73625 0.833971 4.5621 -5.62262 -8.00926 
